<?xml version="1.0" encoding="UTF-8" standalone="no"?>
<!DOCTYPE svg PUBLIC "-//W3C//DTD SVG 1.1//EN" "http://www.w3.org/Graphics/SVG/1.1/DTD/svg11.dtd">
<svg width="100%" height="100%" viewBox="0 0 10000 800" version="1.1" xmlns="http://www.w3.org/2000/svg" xmlns:xlink="http://www.w3.org/1999/xlink" xml:space="preserve" xmlns:serif="http://www.serif.com/" style="fill-rule:evenodd;clip-rule:evenodd;stroke-linejoin:round;stroke-miterlimit:2;">
    <g id="Artboard1" transform="matrix(6.94444,0,0,0.888889,0,0)">
        <rect x="0" y="0" width="1440" height="900" style="fill:none;"/>
        <g transform="matrix(0.144,0,0,1.125,0,0)">
            <path d="M10000,0C10000,0 9994.15,629.621 9549.51,740.502C8863.31,911.62 8267.74,208.004 7798.38,343.302C7534.24,419.44 6348.25,1119.62 4353.72,575.534C2620.53,102.736 2069.19,1238.7 1004.71,575.534C702.151,387.045 478.686,515.229 197.541,400C25.441,329.464 0,0 0,0L10000,0Z" style="fill:url(#_Linear1);"/>
        </g>
    </g>
    <defs>
        <linearGradient id="_Linear1" x1="0" y1="0" x2="1" y2="0" gradientUnits="userSpaceOnUse" gradientTransform="matrix(-10840.6,585.717,-585.717,-10840.6,10000,134.813)"><stop offset="0" style="stop-color:rgb(247,229,216);stop-opacity:0"/><stop offset="0.06" style="stop-color:rgb(247,229,216);stop-opacity:0.396078"/><stop offset="0.13" style="stop-color:rgb(247,229,216);stop-opacity:0.807843"/><stop offset="0.31" style="stop-color:rgb(247,229,216);stop-opacity:1"/><stop offset="0.44" style="stop-color:rgb(247,229,216);stop-opacity:0.596078"/><stop offset="0.6" style="stop-color:rgb(247,229,216);stop-opacity:0.188235"/><stop offset="1" style="stop-color:rgb(247,229,216);stop-opacity:0"/></linearGradient>
    </defs>
</svg>
